<mxfile host="app.diagrams.net" agent="Mozilla/5.0 (Windows NT 10.0; Win64; x64) AppleWebKit/537.36 (KHTML, like Gecko) Chrome/132.0.0.0 Safari/537.36" version="26.0.10">
  <diagram name="Page-1" id="BaQjrHGnhyHOvxtJc_cx">
    <mxGraphModel dx="2109" dy="655" grid="1" gridSize="10" guides="1" tooltips="1" connect="1" arrows="1" fold="1" page="1" pageScale="1" pageWidth="850" pageHeight="1100" math="0" shadow="0">
      <root>
        <mxCell id="0" />
        <mxCell id="1" parent="0" />
        <mxCell id="wULy-7REionq49kMm_7C-1" value="" style="rounded=0;whiteSpace=wrap;html=1;fillColor=#dae8fc;strokeColor=#6c8ebf;" parent="1" vertex="1">
          <mxGeometry x="425" y="80" width="235" height="170" as="geometry" />
        </mxCell>
        <mxCell id="wULy-7REionq49kMm_7C-2" value="&lt;b&gt;terraform-aws-ec2&lt;/b&gt;" style="text;html=1;align=center;verticalAlign=middle;resizable=0;points=[];autosize=1;strokeColor=none;fillColor=none;" parent="1" vertex="1">
          <mxGeometry x="447.5" y="80" width="130" height="30" as="geometry" />
        </mxCell>
        <mxCell id="wULy-7REionq49kMm_7C-3" value="" style="sketch=0;outlineConnect=0;fontColor=#232F3E;gradientColor=none;fillColor=#232F3D;strokeColor=none;dashed=0;verticalLabelPosition=bottom;verticalAlign=top;align=center;html=1;fontSize=12;fontStyle=0;aspect=fixed;pointerEvents=1;shape=mxgraph.aws4.source_code;" parent="1" vertex="1">
          <mxGeometry x="490" y="120" width="57" height="78" as="geometry" />
        </mxCell>
        <mxCell id="wULy-7REionq49kMm_7C-6" style="edgeStyle=orthogonalEdgeStyle;rounded=0;orthogonalLoop=1;jettySize=auto;html=1;entryX=0;entryY=0.5;entryDx=0;entryDy=0;" parent="1" source="wULy-7REionq49kMm_7C-4" target="wULy-7REionq49kMm_7C-1" edge="1">
          <mxGeometry relative="1" as="geometry">
            <Array as="points">
              <mxPoint x="110" y="145" />
            </Array>
          </mxGeometry>
        </mxCell>
        <mxCell id="wULy-7REionq49kMm_7C-4" value="" style="rounded=0;whiteSpace=wrap;html=1;fillColor=#d5e8d4;strokeColor=#82b366;" parent="1" vertex="1">
          <mxGeometry x="30" y="280" width="150" height="100" as="geometry" />
        </mxCell>
        <mxCell id="wULy-7REionq49kMm_7C-5" value="&lt;b&gt;expense-ec2&lt;/b&gt;" style="text;html=1;align=center;verticalAlign=middle;resizable=0;points=[];autosize=1;strokeColor=none;fillColor=none;" parent="1" vertex="1">
          <mxGeometry x="55" y="280" width="100" height="30" as="geometry" />
        </mxCell>
        <mxCell id="wULy-7REionq49kMm_7C-7" value="&lt;b&gt;pass inputs&lt;/b&gt;" style="text;html=1;align=center;verticalAlign=middle;resizable=0;points=[];autosize=1;strokeColor=none;fillColor=none;" parent="1" vertex="1">
          <mxGeometry x="220" y="144" width="90" height="30" as="geometry" />
        </mxCell>
        <mxCell id="wULy-7REionq49kMm_7C-10" style="edgeStyle=orthogonalEdgeStyle;rounded=0;orthogonalLoop=1;jettySize=auto;html=1;entryX=0;entryY=0.5;entryDx=0;entryDy=0;" parent="1" source="wULy-7REionq49kMm_7C-8" target="wULy-7REionq49kMm_7C-1" edge="1">
          <mxGeometry relative="1" as="geometry">
            <Array as="points">
              <mxPoint x="340" y="145" />
            </Array>
          </mxGeometry>
        </mxCell>
        <mxCell id="wULy-7REionq49kMm_7C-8" value="" style="rounded=0;whiteSpace=wrap;html=1;fillColor=#d5e8d4;strokeColor=#82b366;" parent="1" vertex="1">
          <mxGeometry x="260" y="280" width="150" height="100" as="geometry" />
        </mxCell>
        <mxCell id="wULy-7REionq49kMm_7C-9" value="&lt;b&gt;roboshop-ec2&lt;/b&gt;" style="text;html=1;align=center;verticalAlign=middle;resizable=0;points=[];autosize=1;strokeColor=none;fillColor=none;" parent="1" vertex="1">
          <mxGeometry x="285" y="280" width="100" height="30" as="geometry" />
        </mxCell>
        <mxCell id="wULy-7REionq49kMm_7C-11" value="&lt;b&gt;provider&lt;/b&gt;" style="rounded=1;whiteSpace=wrap;html=1;" parent="1" vertex="1">
          <mxGeometry x="80" y="310" width="70" height="40" as="geometry" />
        </mxCell>
        <mxCell id="wULy-7REionq49kMm_7C-12" value="&lt;b&gt;provider&lt;/b&gt;" style="rounded=1;whiteSpace=wrap;html=1;" parent="1" vertex="1">
          <mxGeometry x="310" y="310" width="70" height="40" as="geometry" />
        </mxCell>
        <mxCell id="wULy-7REionq49kMm_7C-13" value="&lt;b&gt;&lt;font face=&quot;Comic Sans MS&quot;&gt;Module Developers&lt;/font&gt;&lt;/b&gt;" style="text;html=1;align=center;verticalAlign=middle;resizable=0;points=[];autosize=1;strokeColor=none;fillColor=none;" parent="1" vertex="1">
          <mxGeometry x="453.5" y="40" width="130" height="30" as="geometry" />
        </mxCell>
        <mxCell id="wULy-7REionq49kMm_7C-14" value="&lt;b&gt;&lt;font face=&quot;Comic Sans MS&quot;&gt;Module Users&lt;/font&gt;&lt;/b&gt;" style="text;html=1;align=center;verticalAlign=middle;resizable=0;points=[];autosize=1;strokeColor=none;fillColor=none;" parent="1" vertex="1">
          <mxGeometry x="-15" y="250" width="100" height="30" as="geometry" />
        </mxCell>
        <mxCell id="xsGygoBl8zZsQBZVawx7-1" value="&lt;b&gt;main.tf&lt;/b&gt;&lt;div&gt;&lt;b&gt;variables.tf&lt;/b&gt;&lt;/div&gt;&lt;div&gt;&lt;b&gt;data.tf&lt;/b&gt;&lt;/div&gt;&lt;div&gt;&lt;b&gt;outputs.tf&lt;/b&gt;&lt;/div&gt;&lt;div&gt;&lt;b&gt;locals.tf&lt;/b&gt;&lt;/div&gt;" style="text;html=1;align=center;verticalAlign=middle;resizable=0;points=[];autosize=1;strokeColor=none;fillColor=none;" vertex="1" parent="1">
          <mxGeometry x="570" y="110" width="90" height="90" as="geometry" />
        </mxCell>
      </root>
    </mxGraphModel>
  </diagram>
</mxfile>
